<svg width="420" height="295" viewBox="0 0 420 295" fill="none" xmlns="http://www.w3.org/2000/svg">
<path d="M166.045 111.704H160.626L156.365 92.4607L152.011 111.704H146.592L139.831 79.4763H146.174L149.553 98.3511L153.814 79.4763H158.815L163.076 98.3511L166.503 79.4763H172.801L166.039 111.704H166.045Z" fill="#F7A527"/>
<path d="M196.793 111.704H190.357L189.2 106.962H179.523L178.365 111.704H172.253L180.587 79.4763H188.413L196.795 111.704H196.793ZM180.955 101.253H187.854L184.475 87.0731L180.955 101.253Z" fill="#F7A527"/>
<path d="M224.248 111.704H217.071L206.467 98.2617L206.515 111.704H200.45V89.0058C200.45 83.1602 205.079 78.9233 211.099 78.8786C216.981 78.9261 221.796 83.1155 221.796 89.0533C221.796 94.3935 218.324 97.9852 213.785 99.0437L224.248 111.704ZM206.608 89.0533C206.608 91.5865 208.273 93.5639 211.007 93.5639C213.785 93.5165 215.498 91.5837 215.498 89.0533C215.498 86.7966 213.785 84.6321 211.007 84.6321C208.273 84.6796 206.608 86.7966 206.608 89.0533Z" fill="#F7A527"/>
<path d="M227.582 111.704V105.582H235.639C237.675 105.582 239.574 104.431 239.574 102.175C239.574 100.611 238.647 99.4124 236.841 98.7225L232.304 96.9267C228.925 95.6363 226.24 93.0584 226.24 88.316C226.24 83.2524 230.223 79.4763 235.965 79.4763H243.375V85.4616H236.06C234.209 85.4616 232.819 86.6123 232.819 88.3607C232.819 90.0169 233.653 90.9386 235.459 91.6759L239.951 93.4718C243.793 94.899 246.341 97.893 246.341 102.267C246.341 107.607 242.358 111.704 235.83 111.704H227.588H227.582Z" fill="#F7A527"/>
<path d="M272.081 111.704H265.645L264.488 106.962H254.811L253.653 111.704H247.541L255.875 79.4763H263.701L272.084 111.704H272.081ZM256.246 101.253H263.145L259.766 87.0731L256.246 101.253Z" fill="#F7A527"/>
<path d="M297.688 111.704H292.269L288.008 92.4607L283.654 111.704H278.235L271.474 79.4763H277.816L281.196 98.3511L285.457 79.4763H290.457L294.718 98.3511L298.145 79.4763H304.443L297.682 111.704H297.688Z" fill="#F7A527"/>
<path d="M156.832 141.723V136.014H176V141.723H173.593C172.666 149.32 166.554 155.121 157.573 155.121C147.477 155.121 140.949 147.616 140.949 138.315C140.949 129.613 147.477 121.742 157.759 121.742C163.129 121.742 167.25 123.767 170.214 126.945L165.677 131.411C163.826 129.247 161 127.867 157.759 127.912C152.017 127.912 147.663 132.101 147.663 138.315C147.663 144.53 151.739 148.951 157.618 148.951C162.711 148.951 166.138 146.052 166.924 141.723H156.829H156.832Z" fill="#EC7E51"/>
<path d="M205.31 154.568H198.133L187.529 141.125L187.576 154.568H181.512V131.869C181.512 126.024 186.141 121.787 192.161 121.742C198.043 121.79 202.858 125.979 202.858 131.917C202.858 137.257 199.386 140.849 194.846 141.907L205.31 154.568ZM187.669 131.917C187.669 134.45 189.335 136.427 192.068 136.427C194.846 136.38 196.56 134.447 196.56 131.917C196.56 129.66 194.846 127.496 192.068 127.496C189.335 127.543 187.669 129.66 187.669 131.917Z" fill="#EC7E51"/>
<path d="M231.518 154.568H225.083L223.925 149.825H214.248L213.091 154.568H206.979L215.313 122.34H223.139L231.521 154.568H231.518ZM215.681 144.116H222.58L219.201 129.937L215.681 144.116Z" fill="#EC7E51"/>
<path d="M249.345 122.34H255.735L247.075 154.568H240.083L231.423 122.34H237.766L243.552 146.281L249.342 122.34H249.345Z" fill="#EC7E51"/>
<path d="M266.892 128.093V135.321H277.819V140.986H266.892V148.719H279.811V154.565H260.78V122.337H279.348V128.093H266.892Z" fill="#EC7E51"/>
<path d="M304.955 154.568H286.665V122.34H292.87V148.627H304.955V154.565V154.568Z" fill="#EC7E51"/>
<path d="M142.755 197.431V191.309H150.812C152.848 191.309 154.747 190.158 154.747 187.902C154.747 186.337 153.82 185.139 152.014 184.449L147.477 182.654C144.098 181.363 141.413 178.785 141.413 174.043C141.413 168.979 145.396 165.203 151.137 165.203H158.548V171.188H151.233C149.382 171.188 147.991 172.339 147.991 174.088C147.991 175.744 148.826 176.665 150.632 177.403L155.124 179.199C158.966 180.626 161.514 183.62 161.514 187.994C161.514 193.334 157.531 197.431 151.003 197.431H142.761H142.755Z" fill="#EC7E51"/>
<path d="M177.576 170.957V178.185H188.504V183.849H177.576V191.583H190.495V197.428H171.464V165.2H190.032V170.957H177.576Z" fill="#EC7E51"/>
<path d="M225.776 197.431H218.599L207.995 183.989L208.043 197.431H201.978V174.733C201.978 168.887 206.607 164.65 212.627 164.606C218.509 164.653 223.324 168.842 223.324 174.78C223.324 180.12 219.852 183.712 215.313 184.771L225.776 197.431ZM208.135 174.78C208.135 177.313 209.801 179.291 212.534 179.291C215.313 179.243 217.026 177.311 217.026 174.78C217.026 172.524 215.313 170.359 212.534 170.359C209.801 170.407 208.135 172.524 208.135 174.78Z" fill="#EC7E51"/>
<path d="M234.018 197.431V191.951H237.675V170.68H234.248V165.2H247.122V170.68H243.743V191.951H247.355V197.431H234.021H234.018Z" fill="#EC7E51"/>
<path d="M265.735 170.957V178.185H276.662V183.849H265.735V191.583H278.654V197.428H259.623V165.2H278.19V170.957H265.735Z" fill="#EC7E51"/>
<path d="M289.258 197.431V191.309H297.314C299.351 191.309 301.25 190.158 301.25 187.902C301.25 186.337 300.323 185.139 298.516 184.449L293.98 182.654C290.6 181.363 287.915 178.785 287.915 174.043C287.915 168.979 291.898 165.203 297.64 165.203H305.047V171.188H297.733C295.881 171.188 294.491 172.339 294.491 174.088C294.491 175.744 295.325 176.665 297.131 177.403L301.623 179.199C305.466 180.626 308.014 183.62 308.014 187.994C308.014 193.334 304.03 197.431 297.502 197.431H289.261H289.258Z" fill="#EC7E51"/>
<path d="M111.378 136.768C111.378 141.751 108.892 146.312 104.889 148.691L104.673 148.82C104.595 148.864 104.516 148.906 104.437 148.951C104.246 149.029 104.041 149.063 103.819 149.049C103.176 149.012 102.617 148.487 102.544 147.859C102.482 147.306 102.721 146.893 103.019 146.641L104.002 146.085C107.243 144.161 109.238 140.561 109.238 136.581C109.238 130.585 104.645 125.705 98.9989 125.705H98.9343C98.8388 125.705 98.7461 125.7 98.6534 125.705C98.6141 125.705 98.5692 125.705 98.5214 125.705H76.2008C73.844 125.705 71.9282 127.613 71.9282 129.959V140.863C71.9282 142.698 73.094 144.315 74.83 144.887C76.9002 145.574 78.7683 146.8 80.2318 148.437C82.2796 150.719 83.406 153.663 83.406 156.727V188.186C83.406 188.569 83.2122 188.818 83.097 188.932C82.9537 189.075 82.7093 189.239 82.347 189.239C81.7627 189.239 81.288 188.767 81.288 188.186V156.682C81.288 150.965 76.6081 146.312 70.858 146.312C65.4169 146.312 60.855 150.526 60.4589 155.911C60.4365 156.151 60.428 156.403 60.428 156.682C60.428 156.919 60.4337 157.137 60.4505 157.341V188.164C60.4505 188.544 60.2567 188.792 60.1331 188.915C60.0179 189.03 59.7707 189.22 59.3915 189.22H59.3859C58.8129 189.217 58.3297 188.684 58.3297 188.05V156.017C58.487 153.213 59.6106 150.515 61.5011 148.415C62.9618 146.786 64.8298 145.566 66.9001 144.884C68.6389 144.309 69.8074 142.692 69.8074 140.857V129.959C69.8074 127.613 67.8889 125.705 65.5321 125.705H43.2086C43.1609 125.705 43.1188 125.705 43.0794 125.705C42.9867 125.702 42.8912 125.705 42.7985 125.705H42.7339C37.0878 125.705 32.495 130.587 32.495 136.584C32.495 140.567 34.4922 144.167 37.7338 146.091L38.7142 146.644C39.0091 146.898 39.2479 147.312 39.1861 147.862C39.1159 148.49 38.5569 149.015 37.9136 149.052C37.6945 149.066 37.4838 149.032 37.2956 148.954C37.217 148.912 37.1411 148.87 37.0653 148.825L36.908 148.733C36.908 148.733 36.8967 148.728 36.8911 148.725L36.8602 148.705C32.8461 146.328 30.3545 141.762 30.3545 136.771C30.3545 129.297 35.908 123.214 42.7339 123.214H98.9989C105.825 123.214 111.378 129.297 111.378 136.771V136.768Z" fill="#F7A527"/>
<path d="M73.6447 155.115V214.636C73.6447 215.239 72.4003 215.733 70.8665 215.733C69.3328 215.733 68.0884 215.239 68.0884 214.636V155.115C68.0884 154.509 69.3328 154.017 70.8665 154.017C72.4003 154.017 73.6447 154.509 73.6447 155.115Z" fill="#F7A527"/>
<path d="M71.5353 29.1445L71.1813 12.2694H69.8498L69.4987 29.1473C69.3358 36.9396 66.6026 44.4638 61.7233 50.5608L61.6699 50.6251V70.9298H79.3612V50.6251C74.4482 44.5141 71.6982 36.9647 71.5353 29.1445ZM67.7768 54.2168C72.7207 51.6808 77.6562 56.5796 75.1027 61.5008C74.6954 62.2857 74.0494 62.928 73.26 63.333C68.3133 65.8746 63.3834 60.9646 65.934 56.049C66.3414 55.2642 66.9874 54.6218 67.7768 54.2168Z" fill="#F8E7D6"/>
<path d="M90.6478 131.291V197.607H96.1563V131.291H90.6478ZM91.291 86.4196H46.9307L44.8745 85.1237V117.625H50.383V95.5553C50.383 95.2118 50.5319 94.8822 50.7903 94.656C51.9673 93.6282 53.2707 93.8237 54.0235 94.5666C54.4084 94.9521 54.6472 95.4799 54.6472 96.0664V117.625H59.3832V95.5553C59.3832 95.2118 59.5321 94.8822 59.7905 94.656C60.9675 93.6282 62.2709 93.8237 63.0237 94.5666C63.4085 94.9521 63.6473 95.4799 63.6473 96.0664V117.625H68.3862V95.5525C68.3862 95.209 68.535 94.8822 68.7935 94.656C69.9676 93.631 71.271 93.8265 72.0239 94.5694C72.4087 94.9549 72.6475 95.4827 72.6475 96.0692V117.628H77.3863V95.5386C77.3863 95.1923 77.538 94.8599 77.8049 94.6337C78.9903 93.6338 80.2824 93.8321 81.024 94.5694C81.4089 94.9549 81.6476 95.4827 81.6476 96.0692V117.628H86.3865V95.5386C86.3865 95.1923 86.5382 94.8599 86.805 94.6337C87.9904 93.631 89.2826 93.8293 90.0242 94.5666C90.409 94.9521 90.6478 95.4799 90.6478 96.0664V117.625H96.1563V85.1237L91.291 86.4196ZM81.6476 131.291V142.198C82.6533 142.938 83.5859 143.784 84.4258 144.722C85.1617 145.544 85.8162 146.426 86.3865 147.353V131.291H81.6476ZM44.8773 131.291V197.607H50.383V131.291H44.8773ZM54.6472 131.291V147.353C55.2146 146.426 55.8691 145.544 56.6079 144.722C57.4478 143.784 58.3776 142.941 59.3832 142.2V131.291H54.6472ZM82.3443 194.825C82.1083 194.825 81.878 194.814 81.6476 194.789V197.607H86.3865V193.473C85.232 194.35 83.8246 194.825 82.3443 194.825ZM58.6894 194.825C57.209 194.825 55.8045 194.35 54.6472 193.473V197.607H59.3832V194.789C59.1557 194.814 58.9225 194.825 58.6894 194.825ZM64.0153 131.294V140.729C64.4254 140.497 65.1136 140.276 65.8046 140.131V131.294H64.0153ZM75.5689 131.294V140.131C76.2599 140.276 76.9481 140.497 77.3582 140.729V131.294H75.5689Z" fill="#F8E7D6"/>
<path d="M82.4595 68.0503H55.768L53.7651 66.8074V88.3579H87.2685V66.8074L82.4595 68.0503ZM76.6869 76.6247V86.3358H72.4256V76.0968C72.4256 75.7505 72.5773 75.4181 72.8413 75.1919C74.0239 74.1892 75.3217 74.3875 76.0633 75.1249C76.4481 75.5103 76.6869 76.0409 76.6869 76.6247ZM68.6081 76.6247V86.3358H64.344V76.1164C64.344 75.7728 64.4929 75.4432 64.7513 75.217C65.9283 74.1892 67.2317 74.3847 67.9845 75.1276C68.3693 75.5131 68.6081 76.0437 68.6081 76.6275V76.6247Z" fill="#F8E7D6"/>
<path d="M50.3803 162.05V197.607H44.0487V170.934C44.0487 170.351 43.838 169.82 43.5037 169.435C43.1639 169.052 42.6976 168.815 42.1835 168.815C41.1554 168.815 40.3211 169.764 40.3211 170.934V197.607H35.7592V170.934C35.7592 170.351 35.5486 169.82 35.2143 169.435C34.8744 169.052 34.4081 168.815 33.894 168.815C32.8659 168.815 32.0316 169.764 32.0316 170.934V197.607H27.4698V170.934C27.4698 170.351 27.2591 169.82 26.9248 169.435C26.5849 169.052 26.1186 168.815 25.6046 168.815C24.5765 168.815 23.7422 169.764 23.7422 170.934V197.607H17.9893V160.782L20.0202 162.05H50.3803Z" fill="#F8E7D6"/>
<path d="M123.041 160.782V197.607H117.289V170.934C117.289 169.764 116.454 168.815 115.426 168.815C114.912 168.815 114.446 169.052 114.106 169.435C113.772 169.82 113.561 170.351 113.561 170.934V197.607H108.996V170.934C108.996 169.764 108.162 168.815 107.134 168.815C106.62 168.815 106.153 169.052 105.814 169.435C105.479 169.82 105.269 170.351 105.269 170.934V197.607H100.707V170.934C100.707 169.764 99.8725 168.815 98.8444 168.815C98.3303 168.815 97.864 169.052 97.5241 169.435C97.1898 169.82 96.9792 170.351 96.9792 170.934V197.607H90.6504V162.05H118.201L123.041 160.782Z" fill="#F8E7D6"/>
<path d="M62.3327 203.916V215.731L17.9893 203.916H62.3327Z" fill="#F8E7D6"/>
<path d="M123.042 203.916L78.7544 215.731V203.916H123.042Z" fill="#F8E7D6"/>
</svg>
