<svg width="420" height="295" viewBox="0 0 420 295" fill="none" xmlns="http://www.w3.org/2000/svg">
<path d="M213.935 144.53H206.933L201.426 119.631L195.799 144.53H188.796L180.059 102.831H188.255L192.623 127.252L198.129 102.831H204.591L210.098 127.252L214.527 102.831H222.666L213.928 144.53H213.935Z" fill="#F7A527"/>
<path d="M253.67 144.53H245.354L243.858 138.393H231.352L229.857 144.53H221.958L232.728 102.831H242.842L253.674 144.53H253.67ZM233.204 131.007H242.119L237.752 112.66L233.204 131.007Z" fill="#F7A527"/>
<path d="M289.152 144.53H279.877L266.173 127.137L266.234 144.53H258.397V115.161C258.397 107.598 264.379 102.116 272.159 102.058C279.76 102.119 285.982 107.54 285.982 115.223C285.982 122.132 281.496 126.779 275.629 128.149L289.152 144.53ZM266.354 115.223C266.354 118.5 268.507 121.059 272.039 121.059C275.629 120.997 277.844 118.497 277.844 115.223C277.844 112.303 275.629 109.502 272.039 109.502C268.507 109.563 266.354 112.303 266.354 115.223Z" fill="#F7A527"/>
<path d="M293.461 144.53V136.608H303.872C306.504 136.608 308.958 135.119 308.958 132.2C308.958 130.176 307.76 128.626 305.426 127.733L299.563 125.41C295.196 123.74 291.726 120.405 291.726 114.269C291.726 107.717 296.873 102.831 304.293 102.831H313.869V110.575H304.417C302.024 110.575 300.227 112.064 300.227 114.326C300.227 116.469 301.306 117.662 303.64 118.616L309.444 120.939C314.41 122.786 317.703 126.66 317.703 132.319C317.703 139.228 312.555 144.53 304.119 144.53H293.468H293.461Z" fill="#F7A527"/>
<path d="M350.966 144.53H342.649L341.154 138.393H328.648L327.152 144.53H319.253L330.024 102.831H340.137L350.969 144.53H350.966ZM330.503 131.007H339.418L335.051 112.66L330.503 131.007Z" fill="#F7A527"/>
<path d="M384.058 144.53H377.056L371.549 119.631L365.922 144.53H358.919L350.182 102.831H358.378L362.746 127.252L368.252 102.831H374.714L380.221 127.252L384.65 102.831H392.789L384.051 144.53H384.058Z" fill="#F7A527"/>
<path d="M202.028 183.369V175.983H226.8V183.369H223.689C222.491 193.199 214.592 200.704 202.987 200.704C189.94 200.704 181.503 190.994 181.503 178.961C181.503 167.701 189.94 157.517 203.226 157.517C210.167 157.517 215.492 160.137 219.322 164.249L213.46 170.028C211.067 167.227 207.415 165.442 203.226 165.5C195.806 165.5 190.179 170.92 190.179 178.961C190.179 187.001 195.447 192.722 203.045 192.722C209.626 192.722 214.055 188.971 215.071 183.369H202.025H202.028Z" fill="#EC7E51"/>
<path d="M264.677 199.989H255.402L241.699 182.596L241.76 199.989H233.923V170.62C233.923 163.057 239.905 157.575 247.685 157.517C255.286 157.579 261.508 162.999 261.508 170.682C261.508 177.591 257.021 182.238 251.155 183.608L264.677 199.989ZM241.88 170.682C241.88 173.959 244.033 176.518 247.565 176.518C251.155 176.456 253.37 173.956 253.37 170.682C253.37 167.762 251.155 164.961 247.565 164.961C244.033 165.023 241.88 167.762 241.88 170.682Z" fill="#EC7E51"/>
<path d="M298.546 199.989H290.23L288.734 193.853H276.228L274.733 199.989H266.833L277.604 158.29H287.718L298.55 199.989H298.546ZM278.08 186.466H286.995L282.628 168.12L278.08 186.466Z" fill="#EC7E51"/>
<path d="M321.583 158.29H329.842L318.65 199.989H309.615L298.423 158.29H306.62L314.098 189.267L321.58 158.29H321.583Z" fill="#EC7E51"/>
<path d="M344.261 165.735V175.087H358.382V182.415H344.261V192.422H360.956V199.985H336.362V158.287H360.357V165.735H344.261Z" fill="#EC7E51"/>
<path d="M393.449 199.989H369.813V158.29H377.832V192.303H393.449V199.985V199.989Z" fill="#EC7E51"/>
<path d="M183.838 255.448V247.527H194.249C196.881 247.527 199.335 246.038 199.335 243.118C199.335 241.095 198.137 239.544 195.803 238.652L189.94 236.328C185.573 234.659 182.103 231.323 182.103 225.187C182.103 218.635 187.25 213.75 194.67 213.75H204.246V221.494H194.794C192.401 221.494 190.604 222.983 190.604 225.245C190.604 227.388 191.682 228.58 194.017 229.534L199.821 231.858C204.787 233.705 208.08 237.578 208.08 243.237C208.08 250.147 202.932 255.448 194.496 255.448H183.845H183.838Z" fill="#EC7E51"/>
<path d="M228.837 221.194V230.546H242.958V237.875H228.837V247.881H245.532V255.445H220.938V213.746H244.933V221.194H228.837Z" fill="#EC7E51"/>
<path d="M291.127 255.448H281.852L268.148 238.055L268.21 255.448H260.372V226.08C260.372 218.516 266.355 213.034 274.134 212.976C281.735 213.038 287.958 218.458 287.958 226.141C287.958 233.05 283.471 237.698 277.604 239.067L291.127 255.448ZM268.329 226.141C268.329 229.419 270.482 231.977 274.014 231.977C277.604 231.916 279.819 229.415 279.819 226.141C279.819 223.221 277.604 220.421 274.014 220.421C270.482 220.482 268.329 223.221 268.329 226.141Z" fill="#EC7E51"/>
<path d="M301.777 255.448V248.358H306.504V220.836H302.075V213.746H318.712V220.836H314.345V248.358H319.013V255.448H301.781H301.777Z" fill="#EC7E51"/>
<path d="M342.765 221.194V230.546H356.887V237.875H342.765V247.881H359.46V255.445H334.866V213.746H358.861V221.194H342.765Z" fill="#EC7E51"/>
<path d="M373.164 255.448V247.527H383.575C386.207 247.527 388.661 246.038 388.661 243.118C388.661 241.095 387.463 239.544 385.129 238.652L379.266 236.328C374.899 234.659 371.429 231.323 371.429 225.187C371.429 218.635 376.576 213.75 383.996 213.75H393.569V221.494H384.116C381.724 221.494 379.927 222.983 379.927 225.245C379.927 227.388 381.005 228.58 383.339 229.534L389.144 231.858C394.11 233.705 397.402 237.578 397.402 243.237C397.402 250.147 392.255 255.448 383.818 255.448H373.168H373.164Z" fill="#EC7E51"/>
<path d="M143.289 176.959C143.289 183.406 140.076 189.307 134.903 192.386L134.624 192.552C134.522 192.61 134.42 192.664 134.319 192.722C134.072 192.823 133.807 192.866 133.52 192.848C132.689 192.801 131.966 192.122 131.872 191.309C131.792 190.593 132.101 190.058 132.486 189.733L133.756 189.014C137.945 186.524 140.523 181.866 140.523 176.717C140.523 168.958 134.587 162.645 127.291 162.645H127.207C127.084 162.645 126.964 162.638 126.844 162.645C126.793 162.645 126.735 162.645 126.674 162.645H97.8286C94.7829 162.645 92.3071 165.113 92.3071 168.149V182.256C92.3071 184.631 93.8136 186.723 96.0571 187.464C98.7325 188.353 101.147 189.939 103.038 192.057C105.684 195.009 107.14 198.818 107.14 202.782V243.487C107.14 243.982 106.889 244.304 106.741 244.452C106.555 244.636 106.24 244.849 105.771 244.849C105.016 244.849 104.403 244.238 104.403 243.487V202.724C104.403 195.327 98.355 189.307 90.9241 189.307C83.8925 189.307 77.9971 194.76 77.4853 201.727C77.4562 202.038 77.4453 202.363 77.4453 202.724C77.4453 203.032 77.4526 203.313 77.4744 203.577V243.458C77.4744 243.949 77.2239 244.271 77.0642 244.43C76.9153 244.578 76.5959 244.824 76.1058 244.824H76.0986C75.358 244.82 74.7336 244.13 74.7336 243.31V201.864C74.9369 198.236 76.389 194.745 78.8321 192.028C80.7197 189.921 83.1338 188.342 85.8092 187.46C88.0562 186.716 89.5664 184.623 89.5664 182.249V168.149C89.5664 165.113 87.087 162.645 84.0413 162.645H55.1926C55.1309 162.645 55.0764 162.645 55.0256 162.645C54.9058 162.641 54.7824 162.645 54.6626 162.645H54.5791C47.2825 162.645 41.3472 168.962 41.3472 176.72C41.3472 181.873 43.9283 186.531 48.1174 189.021L49.3844 189.737C49.7655 190.066 50.0741 190.6 49.9942 191.312C49.9035 192.125 49.1811 192.805 48.3498 192.852C48.0666 192.87 47.7944 192.827 47.5511 192.725C47.4495 192.671 47.3515 192.617 47.2535 192.559L47.0502 192.44C47.0502 192.44 47.0357 192.433 47.0284 192.429L46.9885 192.404C41.801 189.328 38.5811 183.42 38.5811 176.962C38.5811 167.292 45.7578 159.422 54.5791 159.422H127.291C136.112 159.422 143.289 167.292 143.289 176.962V176.959Z" fill="#F7A527"/>
<path d="M94.5252 200.697V277.709C94.5252 278.489 92.917 279.129 90.9349 279.129C88.9529 279.129 87.3447 278.489 87.3447 277.709V200.697C87.3447 199.913 88.9529 199.277 90.9349 199.277C92.917 199.277 94.5252 199.913 94.5252 200.697Z" fill="#F7A527"/>
<path d="M91.7989 37.7089L91.3415 15.8749H89.6208L89.167 37.7125C88.9565 47.7947 85.4243 57.53 79.1188 65.4186L79.0498 65.5017V91.7733H101.912V65.5017C95.5633 57.595 92.0094 47.8272 91.7989 37.7089ZM86.9417 70.149C93.3308 66.8677 99.7089 73.2061 96.4091 79.5735C95.8828 80.5889 95.0478 81.4201 94.0278 81.944C87.6351 85.2325 81.2642 78.8796 84.5604 72.5195C85.0867 71.5041 85.9217 70.6729 86.9417 70.149Z" fill="#F8E7D6"/>
<path d="M116.498 169.872V255.676H123.617V169.872H116.498ZM117.33 111.815H60.0025L57.3452 110.138V152.191H64.4639V123.635C64.4639 123.191 64.6563 122.764 64.9903 122.472C66.5113 121.142 68.1957 121.395 69.1686 122.356C69.6659 122.855 69.9745 123.538 69.9745 124.296V152.191H76.0949V123.635C76.0949 123.191 76.2873 122.764 76.6213 122.472C78.1423 121.142 79.8267 121.395 80.7996 122.356C81.2969 122.855 81.6054 123.538 81.6054 124.296V152.191H87.7295V123.632C87.7295 123.187 87.9219 122.764 88.2559 122.472C89.7733 121.145 91.4576 121.398 92.4305 122.36C92.9279 122.858 93.2364 123.541 93.2364 124.3V152.194H99.3605V123.614C99.3605 123.165 99.5565 122.735 99.9014 122.443C101.433 121.149 103.103 121.406 104.061 122.36C104.559 122.858 104.867 123.541 104.867 124.3V152.194H110.991V123.614C110.991 123.165 111.187 122.735 111.532 122.443C113.064 121.145 114.734 121.402 115.692 122.356C116.19 122.855 116.498 123.538 116.498 124.296V152.191H123.617V110.138L117.33 111.815ZM104.867 169.872V183.984C106.167 184.941 107.372 186.036 108.458 187.251C109.409 188.313 110.255 189.455 110.991 190.655V169.872H104.867ZM57.3488 169.872V255.676H64.4639V169.872H57.3488ZM69.9745 169.872V190.655C70.7078 189.455 71.5536 188.313 72.5083 187.251C73.5937 186.036 74.7953 184.945 76.0949 183.987V169.872H69.9745ZM105.768 252.077C105.463 252.077 105.165 252.062 104.867 252.03V255.676H110.991V250.328C109.499 251.462 107.681 252.077 105.768 252.077ZM75.1982 252.077C73.2852 252.077 71.4701 251.462 69.9745 250.328V255.676H76.0949V252.03C75.8008 252.062 75.4995 252.077 75.1982 252.077ZM82.081 169.876V182.083C82.611 181.783 83.5004 181.498 84.3934 181.31V169.876H82.081ZM97.0118 169.876V181.31C97.9048 181.498 98.7942 181.783 99.3242 182.083V169.876H97.0118Z" fill="#F8E7D6"/>
<path d="M105.916 88.0475H71.4228L68.8345 86.4395V114.323H112.131V86.4395L105.916 88.0475ZM98.4564 99.1416V111.706H92.9495V98.4586C92.9495 98.0105 93.1455 97.5805 93.4868 97.2878C95.0151 95.9904 96.6922 96.247 97.6505 97.201C98.1479 97.6997 98.4564 98.3863 98.4564 99.1416ZM88.0161 99.1416V111.706H82.5056V98.4839C82.5056 98.0394 82.698 97.613 83.032 97.3203C84.553 95.9904 86.2374 96.2434 87.2103 97.2046C87.7076 97.7033 88.0161 98.3899 88.0161 99.1452V99.1416Z" fill="#F8E7D6"/>
<path d="M64.4602 209.67V255.676H56.2779V221.165C56.2779 220.41 56.0056 219.723 55.5736 219.225C55.1344 218.729 54.5318 218.422 53.8675 218.422C52.5388 218.422 51.4607 219.651 51.4607 221.165V255.676H45.5653V221.165C45.5653 220.41 45.2931 219.723 44.8611 219.225C44.4218 218.729 43.8192 218.422 43.1549 218.422C41.8263 218.422 40.7481 219.651 40.7481 221.165V255.676H34.8528V221.165C34.8528 220.41 34.5805 219.723 34.1486 219.225C33.7093 218.729 33.1067 218.422 32.4424 218.422C31.1138 218.422 30.0356 219.651 30.0356 221.165V255.676H22.6011V208.029L25.2257 209.67H64.4602Z" fill="#F8E7D6"/>
<path d="M158.361 208.029V255.676H150.927V221.165C150.927 219.651 149.848 218.422 148.52 218.422C147.855 218.422 147.253 218.729 146.814 219.225C146.382 219.723 146.109 220.41 146.109 221.165V255.676H140.21V221.165C140.21 219.651 139.132 218.422 137.804 218.422C137.139 218.422 136.537 218.729 136.097 219.225C135.665 219.723 135.393 220.41 135.393 221.165V255.676H129.498V221.165C129.498 219.651 128.42 218.422 127.091 218.422C126.427 218.422 125.824 218.729 125.385 219.225C124.953 219.723 124.681 220.41 124.681 221.165V255.676H116.502V209.67H152.106L158.361 208.029Z" fill="#F8E7D6"/>
<path d="M79.9065 263.839V279.125L22.6011 263.839H79.9065Z" fill="#F8E7D6"/>
<path d="M158.361 263.839L101.128 279.125V263.839H158.361Z" fill="#F8E7D6"/>
</svg>
